<svg xmlns="http://www.w3.org/2000/svg" viewBox="0 0 31.4 31.93"><defs><style>.cls-1{fill:#072a40;}.cls-2{fill:#178ca4;}</style></defs><title>comute_logo</title><g id="Layer_2" data-name="Layer 2"><g id="Layer_1-2" data-name="Layer 1"><path class="cls-1" d="M31.4,14.1a5.85,5.85,0,0,0-1.3-3.8,8.64,8.64,0,0,1-1-1.6c-.9-1.6-1.8-3.3-2.7-4.9A7.13,7.13,0,0,0,19.9,0H11.5A6.88,6.88,0,0,0,5.1,3.8L2,9.4a5.55,5.55,0,0,1-.6.8A6.52,6.52,0,0,0,0,13.9v9.8a1.71,1.71,0,0,0,1.7,1.8H6.5a1.71,1.71,0,0,0,1.8-1.7v-.9H23v.8a1.79,1.79,0,0,0,1.7,1.9h4.8A1.71,1.71,0,0,0,31.4,24V14.1ZM8.9,4.7a3.57,3.57,0,0,1,2.7-1.2H20a3.54,3.54,0,0,1,3.3,2c.3.6.7,1.3,1.1,2H7.1C7.7,6.6,8.2,5.6,8.9,4.7ZM28,19.3H21.9a.71.71,0,0,1-.6-.3c-.4-.6-.9-1.2-1.3-1.8a2.09,2.09,0,0,0-1.6-.8H13.5a1.7,1.7,0,0,0-1.6.9l-1.3,1.8c-.1.1-.2.2-.3.2H3.8V14a3.08,3.08,0,0,1,2.7-2.8,3.4,3.4,0,0,1,1-.1H24.4a3.85,3.85,0,0,1,3,1.2,2.41,2.41,0,0,1,.7,1.7C28,15.7,28,17.5,28,19.3Z"/><path class="cls-1" d="M7.7,13.5a1.8,1.8,0,1,0,1.8,1.8h0a1.79,1.79,0,0,0-1.8-1.8Z"/><path class="cls-1" d="M23.7,13.5a1.8,1.8,0,1,0,1.8,1.8,1.93,1.93,0,0,0-1.8-1.8Z"/><path class="cls-2" d="M21.3,26.6c1-1.1.6-2.1-.9-2.1H11.1c-1.5,0-1.9.9-.9,2.1,0,0,3,3.6,3.9,4.6a2.35,2.35,0,0,0,3.3.1l.1-.1C18.3,30.2,21.3,26.6,21.3,26.6Z"/></g></g></svg>