<svg xmlns="http://www.w3.org/2000/svg" viewBox="0 0 44.1 46.74"><defs><style>.cls-1{fill:#072a40;}.cls-2{fill:#178ca4;}</style></defs><title>comute_logo</title><g id="Layer_2" data-name="Layer 2"><g id="Layer_1-2" data-name="Layer 1"><path class="cls-1" d="M37.71,14.1a5.85,5.85,0,0,0-1.3-3.8,8.64,8.64,0,0,1-1-1.6c-.9-1.6-1.8-3.3-2.7-4.9A7.13,7.13,0,0,0,26.21,0h-8.4a6.88,6.88,0,0,0-6.4,3.8L8.31,9.4a5.55,5.55,0,0,1-.6.8,6.52,6.52,0,0,0-1.4,3.7v9.8A1.71,1.71,0,0,0,8,25.5h4.8a1.71,1.71,0,0,0,1.8-1.7v-.9h14.7v.8A1.79,1.79,0,0,0,31,25.6h4.8a1.71,1.71,0,0,0,1.9-1.6V14.1ZM15.21,4.7a3.57,3.57,0,0,1,2.7-1.2h8.4a3.54,3.54,0,0,1,3.3,2c.3.6.7,1.3,1.1,2H13.41C14,6.6,14.51,5.6,15.21,4.7Zm19.1,14.6h-6.1a.71.71,0,0,1-.6-.3c-.4-.6-.9-1.2-1.3-1.8a2.09,2.09,0,0,0-1.6-.8h-4.9a1.7,1.7,0,0,0-1.6.9l-1.3,1.8c-.1.1-.2.2-.3.2h-6.5V14a3.08,3.08,0,0,1,2.7-2.8,3.4,3.4,0,0,1,1-.1h16.9a3.85,3.85,0,0,1,3,1.2,2.41,2.41,0,0,1,.7,1.7C34.31,15.7,34.31,17.5,34.31,19.3Z"/><path class="cls-1" d="M14,13.5a1.8,1.8,0,1,0,1.8,1.8h0A1.79,1.79,0,0,0,14,13.5Z"/><path class="cls-1" d="M30,13.5a1.8,1.8,0,1,0,1.8,1.8A1.93,1.93,0,0,0,30,13.5Z"/><path class="cls-2" d="M27.61,26.6c1-1.1.6-2.1-.9-2.1h-9.3c-1.5,0-1.9.9-.9,2.1,0,0,3,3.6,3.9,4.6a2.35,2.35,0,0,0,3.3.1l.1-.1C24.61,30.2,27.61,26.6,27.61,26.6Z"/><path class="cls-2" d="M10,46.6v-.38a.82.82,0,0,1-.3.36.78.78,0,0,1-.44.12.94.94,0,0,1-.73-.31,1.19,1.19,0,0,1-.28-.83,1.21,1.21,0,0,1,.27-.82.88.88,0,0,1,.71-.32,1,1,0,0,1,.47.11.79.79,0,0,1,.3.35v-.39h.29V46.6Zm-1.43-1a1,1,0,0,0,.19.63.64.64,0,0,0,.53.22.63.63,0,0,0,.52-.24,1,1,0,0,0,.19-.66.88.88,0,0,0-.19-.61.64.64,0,0,0-.52-.23.63.63,0,0,0-.52.24A1,1,0,0,0,8.54,45.57Z"/><path class="cls-2" d="M11.34,44.92a1.33,1.33,0,0,1,.32-.39.55.55,0,0,1,.36-.11h.12l.13,0-.1.28-.09,0H12a.55.55,0,0,0-.45.25,1,1,0,0,0-.19.62v1h-.29V44.49h.29Z"/><path class="cls-2" d="M12.87,44.92a1.51,1.51,0,0,1,.32-.39.57.57,0,0,1,.36-.11h.13l.12,0-.09.28-.1,0h-.1a.55.55,0,0,0-.45.25,1,1,0,0,0-.19.62v1h-.29V44.49h.29Z"/><path class="cls-2" d="M14.06,43.67a.21.21,0,0,1,.07-.16.23.23,0,0,1,.16-.06.25.25,0,0,1,.16.06.26.26,0,0,1,.07.16.24.24,0,0,1-.07.16.23.23,0,0,1-.16.06.21.21,0,0,1-.16-.06A.2.2,0,0,1,14.06,43.67Zm.07,2.93V44.49h.31V46.6Z"/><path class="cls-2" d="M14.92,44.49h.32l.65,1.6.64-1.6h.33l-1,2.25Z"/><path class="cls-2" d="M19.13,45.56H17.45a1,1,0,0,0,.21.64.62.62,0,0,0,.51.23.71.71,0,0,0,.41-.12.88.88,0,0,0,.29-.38l.27.14a1.13,1.13,0,0,1-.39.48,1.06,1.06,0,0,1-.58.15,1,1,0,0,1-.75-.31,1.17,1.17,0,0,1-.29-.82,1.24,1.24,0,0,1,.29-.84,1,1,0,0,1,.74-.31.89.89,0,0,1,.71.29,1.17,1.17,0,0,1,.26.78Zm-.35-.25a.63.63,0,0,0-.19-.45.65.65,0,0,0-.47-.16.6.6,0,0,0-.44.17.66.66,0,0,0-.21.44Z"/><path class="cls-2" d="M22.1,46.7a1,1,0,0,1-.43-.09,1.22,1.22,0,0,1-.38-.26.88.88,0,0,1-.24-.36,1.08,1.08,0,0,1-.09-.44,1,1,0,0,1,.09-.43,1.17,1.17,0,0,1,.62-.62,1,1,0,0,1,.43-.08,1.08,1.08,0,0,1,.44.08,1.19,1.19,0,0,1,.38.25,1.15,1.15,0,0,1,.25.37,1.07,1.07,0,0,1,.09.43,1.08,1.08,0,0,1-.09.44,1.18,1.18,0,0,1-1.07.71Zm0-.28a.78.78,0,0,0,.59-.25.84.84,0,0,0,.24-.61.86.86,0,0,0-.24-.62.82.82,0,0,0-1.18,0,.86.86,0,0,0-.24.62.84.84,0,0,0,.24.61A.78.78,0,0,0,22.11,46.42Z"/><path class="cls-2" d="M23.86,46.6V44.49h.28v.33a.82.82,0,0,1,.74-.4.73.73,0,0,1,.56.2.7.7,0,0,1,.2.55V46.6h-.29V45.3a.71.71,0,0,0-.14-.47.49.49,0,0,0-.4-.15.61.61,0,0,0-.5.2,1,1,0,0,0-.16.62v1.1Z"/><path class="cls-2" d="M27.87,44.74h-.39v-.25h.39v-.86h.28v.86h.43v.25h-.43V46.6h-.28Z"/><path class="cls-2" d="M29,43.67a.21.21,0,0,1,.22-.22.22.22,0,0,1,.23.22.23.23,0,0,1-.06.16.25.25,0,0,1-.17.06.25.25,0,0,1-.16-.06A.23.23,0,0,1,29,43.67ZM29,46.6V44.49h.3V46.6Z"/><path class="cls-2" d="M30.43,46.6h-.3V44.49h.3v.34a.75.75,0,0,1,.27-.31.77.77,0,0,1,.4-.1.64.64,0,0,1,.64.41.92.92,0,0,1,.31-.31.85.85,0,0,1,.43-.1.69.69,0,0,1,.53.2.82.82,0,0,1,.19.56V46.6h-.29V45.29a.74.74,0,0,0-.13-.46.45.45,0,0,0-.38-.16.5.5,0,0,0-.44.2,1,1,0,0,0-.15.62V46.6h-.29V45.29a.76.76,0,0,0-.12-.47.44.44,0,0,0-.37-.15.54.54,0,0,0-.46.2,1.11,1.11,0,0,0-.14.62Z"/><path class="cls-2" d="M35.79,45.56H34.11a1,1,0,0,0,.21.64.62.62,0,0,0,.52.23.68.68,0,0,0,.4-.12,1,1,0,0,0,.3-.38l.27.14a1.15,1.15,0,0,1-.4.48,1.05,1.05,0,0,1-.57.15,1,1,0,0,1-.76-.31,1.17,1.17,0,0,1-.28-.82,1.24,1.24,0,0,1,.28-.84,1,1,0,0,1,.75-.31.89.89,0,0,1,.7.29,1.17,1.17,0,0,1,.26.78Zm-.35-.25a.59.59,0,0,0-.19-.45.63.63,0,0,0-.46-.16.6.6,0,0,0-.45.17.66.66,0,0,0-.21.44Z"/><path class="cls-1" d="M4,39.52a1.66,1.66,0,0,0,.7-.15,2.8,2.8,0,0,0,.6-.39,3.16,3.16,0,0,1,.2.27,1.92,1.92,0,0,1,.18.31,2.33,2.33,0,0,1,.14.33.89.89,0,0,1,.06.3.88.88,0,0,1-.11.42,1,1,0,0,1-.41.38,2.59,2.59,0,0,1-.78.31,4.63,4.63,0,0,1-1.09.11,5,5,0,0,1-1.18-.14,2.86,2.86,0,0,1-1.13-.53,3,3,0,0,1-.86-1.07A4,4,0,0,1,0,37.9a3.61,3.61,0,0,1,.35-1.68,3,3,0,0,1,.87-1,3.19,3.19,0,0,1,1.14-.56,4.77,4.77,0,0,1,1.14-.15,5.09,5.09,0,0,1,1,.09,3.17,3.17,0,0,1,.82.3,1.72,1.72,0,0,1,.49.4.8.8,0,0,1,.16.51,1.38,1.38,0,0,1-.16.59,4.91,4.91,0,0,1-.4.69,4.08,4.08,0,0,0-.7-.47,1.73,1.73,0,0,0-.75-.15,1,1,0,0,0-.85.38,1.58,1.58,0,0,0-.31,1.05,3.31,3.31,0,0,0,.06.64A1.34,1.34,0,0,0,3,39a1.15,1.15,0,0,0,.39.37A1.23,1.23,0,0,0,4,39.52Z"/><path class="cls-1" d="M13.14,37.86A5,5,0,0,1,13,39.2a3.14,3.14,0,0,1-.61,1.14,2.86,2.86,0,0,1-1.07.78,3.91,3.91,0,0,1-1.62.29,4,4,0,0,1-1.59-.28A3,3,0,0,1,7,40.36a2.82,2.82,0,0,1-.6-1.12,4.52,4.52,0,0,1-.2-1.34,4.23,4.23,0,0,1,.22-1.34,3,3,0,0,1,.66-1.09,3.18,3.18,0,0,1,1.1-.74,4,4,0,0,1,1.54-.27,4.2,4.2,0,0,1,1.59.27,2.77,2.77,0,0,1,1.06.74A2.7,2.7,0,0,1,13,36.55,4.32,4.32,0,0,1,13.14,37.86Zm-2.71,0a2.71,2.71,0,0,0-.16-1,.58.58,0,0,0-.58-.42.58.58,0,0,0-.38.12,1,1,0,0,0-.24.33,1.36,1.36,0,0,0-.13.46,4.73,4.73,0,0,0,0,.54,5.1,5.1,0,0,0,0,.57,1.41,1.41,0,0,0,.13.48.92.92,0,0,0,.23.33.52.52,0,0,0,.37.13.58.58,0,0,0,.38-.13.82.82,0,0,0,.23-.34,2.7,2.7,0,0,0,.12-.49A5.17,5.17,0,0,0,10.43,37.9Z"/><path class="cls-1" d="M21.33,37.21a1.56,1.56,0,0,0-.06-.48c-.05-.12-.17-.18-.37-.18a.48.48,0,0,0-.39.13.45.45,0,0,0-.09.25v4.28H17.69v-4a1.52,1.52,0,0,0-.07-.48c-.05-.12-.17-.18-.37-.18a.49.49,0,0,0-.38.13.45.45,0,0,0-.11.28v4.25H14V34.7l.29-.05.34,0,.43,0c.81,0,1.32.23,1.53.68a1.77,1.77,0,0,1,.57-.55,2.19,2.19,0,0,1,1.16-.26,2.11,2.11,0,0,1,1.1.26,1.78,1.78,0,0,1,.67.69,1.68,1.68,0,0,1,.65-.65,2.29,2.29,0,0,1,1.23-.3,2,2,0,0,1,1.33.41A1.87,1.87,0,0,1,24,35.94a1.7,1.7,0,0,1,.06.35,2.56,2.56,0,0,1,0,.39c0,.13,0,.26,0,.39s0,.24,0,.33v3.76l-.29.09-.32.06-.4,0a2.53,2.53,0,0,1-1-.15,1.25,1.25,0,0,1-.52-.39,1.18,1.18,0,0,1-.2-.57c0-.21,0-.43,0-.67Z"/><path class="cls-1" d="M31.63,41.21h-2a.59.59,0,0,1-.47-.15,1,1,0,0,1-.11-.54,1.67,1.67,0,0,1-.61.55,2.36,2.36,0,0,1-1.19.26,2,2,0,0,1-1.33-.41,1.87,1.87,0,0,1-.64-1.07,1.7,1.7,0,0,1-.06-.35,2.56,2.56,0,0,1,0-.39c0-.14,0-.26,0-.39s0-.24,0-.33v-3.7l.35,0,.34,0,.36,0a3.11,3.11,0,0,1,.62.06,1.86,1.86,0,0,1,.54.22,1,1,0,0,1,.38.42,1.49,1.49,0,0,1,.15.71v2.58a1.26,1.26,0,0,0,.08.48.39.39,0,0,0,.39.18.54.54,0,0,0,.41-.13.45.45,0,0,0,.11-.28V34.69l.35,0,.34,0,.36,0a3.21,3.21,0,0,1,.63.06,1.75,1.75,0,0,1,.54.22,1.15,1.15,0,0,1,.37.44,1.47,1.47,0,0,1,.15.71Z"/><path class="cls-1" d="M32.84,40.05a2.77,2.77,0,0,1-.14-.62c0-.2,0-.4,0-.59V32.62l.33,0,.34,0,.35,0a2.59,2.59,0,0,1,.63.07,1.55,1.55,0,0,1,.53.21,1.13,1.13,0,0,1,.38.43,1.47,1.47,0,0,1,.14.71v.69h1.75v2H35.38v2a.7.7,0,0,0,.17.53.64.64,0,0,0,.45.15,1.18,1.18,0,0,0,.5-.12,1.71,1.71,0,0,0,.44-.26c.14.26.26.5.35.71a1.57,1.57,0,0,1,.14.59,1,1,0,0,1-.07.35.83.83,0,0,1-.26.28,2.35,2.35,0,0,1-.81.36,4.15,4.15,0,0,1-1.16.14A2.71,2.71,0,0,1,33.6,41,2,2,0,0,1,32.84,40.05Z"/><path class="cls-1" d="M41.81,39.51a2.21,2.21,0,0,0,.91-.17,3.54,3.54,0,0,0,.74-.43c.11.18.23.39.35.63a1.38,1.38,0,0,1,.18.62.86.86,0,0,1-.12.44,1.33,1.33,0,0,1-.44.39,2.87,2.87,0,0,1-.81.3,5.7,5.7,0,0,1-1.27.12,5.85,5.85,0,0,1-1.2-.13A3.18,3.18,0,0,1,39,40.75a3.14,3.14,0,0,1-.9-1.11,4.18,4.18,0,0,1-.36-1.87A3.57,3.57,0,0,1,38,36.28a3.11,3.11,0,0,1,.76-1,2.88,2.88,0,0,1,1.08-.6,3.93,3.93,0,0,1,1.22-.19,3.71,3.71,0,0,1,1.41.24,2.56,2.56,0,0,1,.95.66,2.52,2.52,0,0,1,.52,1,3.88,3.88,0,0,1,.17,1.14v.19a1.85,1.85,0,0,1,0,.23c0,.09,0,.16,0,.24a1.37,1.37,0,0,0,0,.16H40.42a1.68,1.68,0,0,0,.38.88A1.28,1.28,0,0,0,41.81,39.51Zm-.12-2.37a1.32,1.32,0,0,0-.16-.77.58.58,0,0,0-.51-.21c-.43,0-.64.33-.64,1Z"/></g></g></svg>