<svg xmlns="http://www.w3.org/2000/svg" viewBox="0 0 50.9 14.73"><defs><style>.cls-1{fill:#072a40;}.cls-2{fill:#178ca4;}</style></defs><title>comute</title><g id="Layer_2" data-name="Layer 2"><g id="Layer_1-2" data-name="Layer 1"><path class="cls-1" d="M14.48,6.51a2.69,2.69,0,0,0-.6-1.76A4.2,4.2,0,0,1,13.42,4c-.41-.73-.83-1.52-1.24-2.26A3.32,3.32,0,0,0,9.18,0H5.3A3.2,3.2,0,0,0,2.35,1.75L.92,4.34a3,3,0,0,1-.27.37A3,3,0,0,0,0,6.41v4.52a.79.79,0,0,0,.78.83H3A.79.79,0,0,0,3.83,11v-.42h6.78v.37a.83.83,0,0,0,.78.88h2.22a.78.78,0,0,0,.87-.74V6.51ZM4.1,2.17a1.66,1.66,0,0,1,1.25-.55H9.22a1.64,1.64,0,0,1,1.53.92c.13.28.32.6.5.92h-8C3.55,3.05,3.78,2.58,4.1,2.17ZM12.91,8.9H10.1a.34.34,0,0,1-.28-.13c-.18-.28-.41-.56-.6-.84a.94.94,0,0,0-.73-.36H6.23A.77.77,0,0,0,5.49,8l-.6.83s-.09.09-.14.09h-3V6.46A1.43,1.43,0,0,1,3,5.17a1.44,1.44,0,0,1,.46,0h7.79a1.84,1.84,0,0,1,1.39.55,1.16,1.16,0,0,1,.32.79C12.91,7.24,12.91,8.07,12.91,8.9Z"/><path class="cls-1" d="M3.55,6.23a.83.83,0,1,0,.83.83h0a.83.83,0,0,0-.83-.83Z"/><path class="cls-1" d="M10.93,6.23a.83.83,0,1,0,.83.83.88.88,0,0,0-.83-.83Z"/><path class="cls-2" d="M9.82,12.27c.46-.51.28-1-.41-1H5.12c-.69,0-.88.42-.42,1,0,0,1.39,1.66,1.8,2.12a1.08,1.08,0,0,0,1.52,0l.05,0C8.44,13.93,9.82,12.27,9.82,12.27Z"/><path class="cls-2" d="M26.06,12.13v-.28a.57.57,0,0,1-.54.35A.67.67,0,0,1,25,12a.88.88,0,0,1-.21-.6.93.93,0,0,1,.2-.61.68.68,0,0,1,.52-.23.64.64,0,0,1,.34.09.6.6,0,0,1,.22.25V10.6h.21v1.53Zm-1-.75a.7.7,0,0,0,.13.46.53.53,0,0,0,.77,0,.79.79,0,0,0,.14-.49.66.66,0,0,0-.14-.44.46.46,0,0,0-.38-.16.44.44,0,0,0-.38.17A.73.73,0,0,0,25,11.38Z"/><path class="cls-2" d="M27.05,10.91a.92.92,0,0,1,.24-.29.45.45,0,0,1,.26-.08h.09l.09,0-.07.2h-.14a.4.4,0,0,0-.33.18.73.73,0,0,0-.14.45v.75h-.21V10.6h.21Z"/><path class="cls-2" d="M28.17,10.91a1.08,1.08,0,0,1,.23-.29.5.5,0,0,1,.27-.08h.09l.09,0-.07.2h-.15a.4.4,0,0,0-.32.18.73.73,0,0,0-.14.45v.75H28V10.6h.21Z"/><path class="cls-2" d="M29,10a.17.17,0,0,1,0-.12.2.2,0,0,1,.24,0,.18.18,0,0,1,.05.12.14.14,0,0,1-.05.11.17.17,0,0,1-.24,0A.14.14,0,0,1,29,10Zm.05,2.13V10.6h.22v1.53Z"/><path class="cls-2" d="M29.66,10.6h.23l.48,1.16.46-1.16h.24l-.7,1.63Z"/><path class="cls-2" d="M32.72,11.37H31.5a.8.8,0,0,0,.15.47A.49.49,0,0,0,32,12a.53.53,0,0,0,.3-.09.79.79,0,0,0,.21-.28l.2.11a.9.9,0,0,1-.29.34.73.73,0,0,1-.42.11.71.71,0,0,1-.55-.22.84.84,0,0,1-.21-.6.89.89,0,0,1,.21-.61.71.71,0,0,1,.54-.23.66.66,0,0,1,.51.21.85.85,0,0,1,.19.58Zm-.25-.18a.5.5,0,0,0-.14-.33.5.5,0,0,0-.34-.11.45.45,0,0,0-.32.12.46.46,0,0,0-.15.32Z"/><path class="cls-2" d="M34.89,12.2a.87.87,0,0,1-.32-.06A1,1,0,0,1,34.3,12a.68.68,0,0,1-.18-.26.88.88,0,0,1,0-.64.83.83,0,0,1,.45-.45.88.88,0,0,1,.64,0,1,1,0,0,1,.27.18,1,1,0,0,1,.19.27.81.81,0,0,1-.18.9,1.07,1.07,0,0,1-.28.19A.87.87,0,0,1,34.89,12.2Zm0-.2a.57.57,0,0,0,.43-.18.65.65,0,0,0,0-.9.57.57,0,0,0-.43-.18.56.56,0,0,0-.42.18.65.65,0,0,0,0,.9A.56.56,0,0,0,34.89,12Z"/><path class="cls-2" d="M36.17,12.13V10.6h.2v.24a.63.63,0,0,1,.23-.23.78.78,0,0,1,.31-.07.54.54,0,0,1,.41.15.52.52,0,0,1,.15.4v1h-.22v-.94a.5.5,0,0,0-.1-.35.37.37,0,0,0-.29-.11.42.42,0,0,0-.36.15.69.69,0,0,0-.12.45v.8Z"/><path class="cls-2" d="M39.09,10.78H38.8V10.6h.29V10h.2v.63h.31v.18h-.31v1.35h-.2Z"/><path class="cls-2" d="M39.88,10a.18.18,0,0,1,0-.12.15.15,0,0,1,.11,0,.16.16,0,0,1,.12,0,.18.18,0,0,1,.05.12.12.12,0,0,1-.05.11.13.13,0,0,1-.12.05.13.13,0,0,1-.11-.05A.14.14,0,0,1,39.88,10Zm0,2.13V10.6h.22v1.53Z"/><path class="cls-2" d="M41,12.13h-.21V10.6H41v.24a.54.54,0,0,1,.2-.22.55.55,0,0,1,.29-.08.49.49,0,0,1,.28.08.52.52,0,0,1,.19.22.58.58,0,0,1,.22-.22.62.62,0,0,1,.31-.08.53.53,0,0,1,.39.15.58.58,0,0,1,.14.41v1h-.22v-1a.55.55,0,0,0-.09-.34.31.31,0,0,0-.27-.11.37.37,0,0,0-.33.14.81.81,0,0,0-.1.46v.8h-.21v-1a.51.51,0,0,0-.09-.34.31.31,0,0,0-.27-.11.37.37,0,0,0-.33.14.73.73,0,0,0-.11.46Z"/><path class="cls-2" d="M44.85,11.37H43.63a.8.8,0,0,0,.15.47.49.49,0,0,0,.38.17.53.53,0,0,0,.3-.09.79.79,0,0,0,.21-.28l.2.11a.9.9,0,0,1-.29.34.73.73,0,0,1-.42.11.71.71,0,0,1-.55-.22.84.84,0,0,1-.21-.6.89.89,0,0,1,.21-.61.71.71,0,0,1,.54-.23.66.66,0,0,1,.51.21.85.85,0,0,1,.19.58Zm-.25-.18a.46.46,0,0,0-.14-.33.5.5,0,0,0-.34-.11.45.45,0,0,0-.32.12.46.46,0,0,0-.15.32Z"/><path class="cls-1" d="M21.72,7a1.19,1.19,0,0,0,.51-.11,1.6,1.6,0,0,0,.44-.29l.15.2A1.71,1.71,0,0,1,23,7a2.44,2.44,0,0,1,.1.24.59.59,0,0,1,0,.21.62.62,0,0,1-.07.31.79.79,0,0,1-.31.28,1.7,1.7,0,0,1-.57.22,3.1,3.1,0,0,1-.78.09,3.83,3.83,0,0,1-.86-.11,2.32,2.32,0,0,1-.83-.38,2.08,2.08,0,0,1-.62-.79A2.81,2.81,0,0,1,18.8,5.8a2.64,2.64,0,0,1,.25-1.23,2.18,2.18,0,0,1,.64-.76,2.24,2.24,0,0,1,.82-.4,3.27,3.27,0,0,1,.84-.12,3.23,3.23,0,0,1,.69.07,2.25,2.25,0,0,1,.6.22,1.32,1.32,0,0,1,.35.29.59.59,0,0,1,.12.37,1,1,0,0,1-.12.43,3.76,3.76,0,0,1-.29.5,2.65,2.65,0,0,0-.51-.34,1.28,1.28,0,0,0-.55-.11A.75.75,0,0,0,21,5a1.23,1.23,0,0,0-.22.76,2.42,2.42,0,0,0,.05.47,1.13,1.13,0,0,0,.15.39.87.87,0,0,0,.28.26A.84.84,0,0,0,21.72,7Z"/><path class="cls-1" d="M28.36,5.77a3.56,3.56,0,0,1-.13,1,2.19,2.19,0,0,1-.45.82,2.08,2.08,0,0,1-.78.57,2.91,2.91,0,0,1-1.17.22,2.83,2.83,0,0,1-1.16-.21,2.17,2.17,0,0,1-.78-.56,2.24,2.24,0,0,1-.44-.82,3.39,3.39,0,0,1-.14-1,2.92,2.92,0,0,1,.16-1A2,2,0,0,1,24,4a2.18,2.18,0,0,1,.8-.54,2.91,2.91,0,0,1,1.12-.2,3.09,3.09,0,0,1,1.16.2A2.06,2.06,0,0,1,27.8,4a2,2,0,0,1,.43.78A3.32,3.32,0,0,1,28.36,5.77Zm-2,0a2,2,0,0,0-.12-.74.42.42,0,0,0-.42-.3.4.4,0,0,0-.27.09.63.63,0,0,0-.18.24.85.85,0,0,0-.09.33,2.56,2.56,0,0,0,0,.39,3,3,0,0,0,0,.42,1,1,0,0,0,.09.35.74.74,0,0,0,.17.24.45.45,0,0,0,.55,0,.6.6,0,0,0,.16-.24,1.79,1.79,0,0,0,.09-.35C26.38,6.08,26.39,5.94,26.39,5.8Z"/><path class="cls-1" d="M34.33,5.29a1,1,0,0,0,0-.34c0-.09-.12-.13-.27-.13s-.24,0-.28.09a.35.35,0,0,0-.06.19V8.21h-2V5.29A.81.81,0,0,0,31.62,5c0-.09-.12-.13-.26-.13a.35.35,0,0,0-.28.09.32.32,0,0,0-.08.2v3.1H29V3.47l.21,0,.24,0h.32c.59,0,1,.17,1.11.5a1.27,1.27,0,0,1,.42-.41,1.63,1.63,0,0,1,.84-.19,1.53,1.53,0,0,1,.8.19,1.27,1.27,0,0,1,.49.51,1.13,1.13,0,0,1,.47-.48,1.65,1.65,0,0,1,.9-.22,1.46,1.46,0,0,1,1,.3,1.41,1.41,0,0,1,.46.78,1.58,1.58,0,0,1,0,.25c0,.1,0,.2,0,.29a2.53,2.53,0,0,0,0,.28v3l-.21.07-.23,0-.29,0a1.88,1.88,0,0,1-.71-.11.88.88,0,0,1-.38-.29.84.84,0,0,1-.14-.41,3.91,3.91,0,0,1,0-.49Z"/><path class="cls-1" d="M41.82,8.21H40.37A.44.44,0,0,1,40,8.1a.75.75,0,0,1-.08-.4,1.25,1.25,0,0,1-.44.4,1.7,1.7,0,0,1-.87.2,1.46,1.46,0,0,1-1-.3,1.43,1.43,0,0,1-.47-.78,1.78,1.78,0,0,1,0-.26,2.64,2.64,0,0,1,0-.28c0-.1,0-.19,0-.29V3.46l.25,0,.25,0h.26a2.14,2.14,0,0,1,.45,0,1.07,1.07,0,0,1,.4.15A.82.82,0,0,1,39,3.9a1.13,1.13,0,0,1,.11.51V6.29a.82.82,0,0,0,.06.35c0,.09.14.13.28.13a.38.38,0,0,0,.3-.09.34.34,0,0,0,.08-.21v-3l.26,0,.24,0h.26a2.24,2.24,0,0,1,.46,0,1.07,1.07,0,0,1,.4.15.94.94,0,0,1,.27.32,1.15,1.15,0,0,1,.1.52Z"/><path class="cls-1" d="M42.7,7.37a2,2,0,0,1-.09-.46,3.1,3.1,0,0,1,0-.43V2a1,1,0,0,0,.24,0l.24,0h.27a2.22,2.22,0,0,1,.45.05,1.11,1.11,0,0,1,.39.16.74.74,0,0,1,.27.31,1.07,1.07,0,0,1,.11.51v.51h1.27V4.89H44.56V6.36a.5.5,0,0,0,.12.39.49.49,0,0,0,.33.11.83.83,0,0,0,.36-.09,1.23,1.23,0,0,0,.32-.19c.1.19.19.37.26.52a1.26,1.26,0,0,1,.1.43.62.62,0,0,1,0,.25.72.72,0,0,1-.19.21,1.8,1.8,0,0,1-.59.26,3.13,3.13,0,0,1-.85.11,1.9,1.9,0,0,1-1.11-.28A1.5,1.5,0,0,1,42.7,7.37Z"/><path class="cls-1" d="M49.24,7a1.62,1.62,0,0,0,.66-.12,3.06,3.06,0,0,0,.54-.32,4.77,4.77,0,0,1,.25.46,1,1,0,0,1,.13.45.59.59,0,0,1-.09.32.88.88,0,0,1-.31.29,2.62,2.62,0,0,1-.59.22,4.06,4.06,0,0,1-.93.09,4.65,4.65,0,0,1-.87-.1,2.43,2.43,0,0,1-.87-.39,2.14,2.14,0,0,1-.65-.81,2.93,2.93,0,0,1-.27-1.36,2.39,2.39,0,0,1,.22-1.08A2.12,2.12,0,0,1,47,3.87a2.16,2.16,0,0,1,.78-.44,3.06,3.06,0,0,1,.89-.14,2.64,2.64,0,0,1,1,.18A1.78,1.78,0,0,1,50.4,4a1.66,1.66,0,0,1,.38.69,2.82,2.82,0,0,1,.12.83v.31a1,1,0,0,0,0,.17s0,.09,0,.12H48.23a1.19,1.19,0,0,0,.27.64A1,1,0,0,0,49.24,7Zm-.09-1.73A1,1,0,0,0,49,4.68a.43.43,0,0,0-.37-.15c-.31,0-.46.24-.46.71Z"/></g></g></svg>